# xmcd
#
# Track frame offsets:
#	150
#	15173
#	29094
#	40007
#	49649
#	60510
#	71657
#	90670
#	101927
#	114232
#	129831
#	140830
#	152284
#	165651
#	176695
#	187449
#
# Disc length: 2658
#
# Revision: 1
# Processed by: cddbd v1.5.1PL0 Copyright (c) Steve Scherf et al.
# Submitted via: EasyCDDAExtractor 4.5.0.2
# Normalized: r0:TDELIM( - )
#
DISCID=d40a6010
DTITLE=Various Artist - Original country and trucker songs vol.2
DYEAR=2000
DGENRE=Country
TTITLE0=Bellamy Brothers - Let Your Love Flow
TTITLE1=John Brack - Darling Clementine
TTITLE2=Floyn Cramer - San Antonio Rose
TTITLE3=Pam Gadd - Cotton Eyed Joe
TTITLE4=Slim Whitman - Rose Marie
TTITLE5=Johnny Russel - Blue Eyes Crying In The Rain
TTITLE6=The Nashville Pickers - In The Pines
TTITLE7=Roger Miller - King Of The Road
TTITLE8=Wand Jackson - What In The World's Come Over You
TTITLE9=Peter Hinnen - El Rancho Grande
TTITLE10=The Shaklefords - Muddy Muddy River
TTITLE11=Don Gibson - Oh Lonesome Me
TTITLE12=Jeff Turner - You Can Have Her
TTITLE13=Nashville Music Company - El Paso
TTITLE14=Kris Kristofferson - Help Me Make I Through The Night
TTITLE15=Skeeter Davis - End Of The World
EXTD=
EXTT0=
EXTT1=
EXTT2=
EXTT3=
EXTT4=
EXTT5=
EXTT6=
EXTT7=
EXTT8=
EXTT9=
EXTT10=
EXTT11=
EXTT12=
EXTT13=
EXTT14=
EXTT15=
PLAYORDER=
